<?xml version="1.0" standalone="no"?>
<!DOCTYPE svg PUBLIC "-//W3C//DTD SVG 20010904//EN"
 "http://www.w3.org/TR/2001/REC-SVG-20010904/DTD/svg10.dtd">
<svg version="1.0" xmlns="http://www.w3.org/2000/svg"
 width="128.000000pt" height="52.000000pt" viewBox="0 0 128.000000 52.000000"
 preserveAspectRatio="xMidYMid meet">
<metadata>
Created by potrace 1.10, written by Peter Selinger 2001-2011
</metadata>
<g transform="translate(0.000000,52.000000) scale(0.100000,-0.100000)"
fill="#000000" stroke="none">
<path d="M90 398 c-52 -27 -81 -69 -64 -95 20 -31 34 -27 34 11 0 34 27 76 49
76 4 0 -4 -55 -20 -122 -35 -149 -35 -148 -6 -148 12 0 49 -21 81 -45 65 -49
90 -55 106 -26 16 32 12 41 -20 41 -23 0 -115 36 -137 54 -1 1 13 63 31 139
33 136 33 137 12 137 -12 0 -42 -10 -66 -22z"/>
<path d="M769 403 c-12 -3 -23 -33 -38 -105 -22 -104 -33 -128 -57 -128 -18 0
-18 31 1 100 8 30 15 56 15 57 0 1 -26 2 -57 2 -84 -1 -116 -27 -134 -108 -16
-70 37 -117 84 -73 22 21 23 21 35 2 15 -25 46 -26 71 -1 18 18 18 18 30 0 15
-25 42 -24 75 2 21 17 26 18 26 5 0 -27 48 -31 80 -8 27 21 28 21 33 2 6 -24
44 -27 73 -6 17 13 21 12 37 -1 14 -13 22 -14 43 -5 30 14 34 15 34 4 0 -4
-16 -14 -34 -20 -42 -16 -55 -46 -30 -73 23 -25 47 -24 77 4 19 17 30 45 46
128 12 58 24 115 28 127 5 19 1 22 -24 22 -27 0 -29 -3 -41 -67 -13 -70 -25
-93 -48 -93 -18 0 -17 21 1 90 19 72 19 72 -12 68 -23 -3 -28 -9 -35 -43 -18
-96 -27 -115 -54 -115 -17 0 -24 4 -21 13 2 7 10 38 17 70 7 37 16 57 26 57 8
0 14 5 14 10 0 6 -7 10 -15 10 -11 0 -12 5 -5 26 14 35 13 36 -17 32 -22 -2
-29 -9 -31 -30 -2 -16 -7 -28 -11 -28 -4 0 -7 -17 -8 -37 -3 -64 -25 -118 -51
-121 -27 -4 -29 17 -7 98 8 30 15 56 15 58 0 1 -13 2 -28 2 -26 0 -29 -4 -41
-62 -7 -35 -17 -71 -22 -80 -10 -19 -49 -25 -49 -8 0 11 38 185 46 213 5 17
-3 19 -37 10z m-144 -102 c6 -11 -15 -100 -28 -118 -5 -7 -18 -13 -28 -13 -14
0 -19 7 -19 29 0 67 52 138 75 102z m485 -190 c0 -20 -13 -41 -25 -41 -22 0
-26 17 -9 34 17 18 34 21 34 7z"/>
<path d="M854 395 c-4 -9 -2 -21 4 -27 16 -16 47 -5 47 17 0 26 -42 34 -51 10z"/>
<path d="M221 314 c-49 -35 -71 -153 -32 -174 47 -25 101 5 122 68 19 59 54
74 38 17 -18 -65 13 -102 76 -91 30 6 81 46 57 46 -6 0 -14 -4 -17 -10 -11
-18 -63 -12 -67 8 -9 40 28 132 52 132 6 0 10 -12 10 -26 0 -16 5 -24 13 -22
17 6 21 36 7 53 -20 24 -57 17 -93 -15 -39 -34 -67 -39 -67 -12 0 42 -55 56
-99 26z m65 -51 c-3 -58 -20 -93 -46 -93 -34 0 -24 85 15 123 26 27 33 20 31
-30z"/>
</g>
</svg>
